<svg width="1200" height="900" viewBox="0 0 1200 900" fill="none" xmlns="http://www.w3.org/2000/svg">
  <rect width="1200" height="900" fill="url(#bg)"/>
  <rect x="120" y="140" width="420" height="260" rx="24" fill="white" fill-opacity="0.9"/>
  <rect x="150" y="175" width="220" height="18" rx="9" fill="#E8EAF2"/>
  <rect x="150" y="210" width="320" height="12" rx="6" fill="#E8EAF2"/>
  <rect x="150" y="240" width="280" height="12" rx="6" fill="#E8EAF2"/>
  <rect x="150" y="290" width="120" height="34" rx="10" fill="#5B6BF8"/>

  <rect x="620" y="220" width="380" height="220" rx="24" fill="white" fill-opacity="0.9"/>
  <rect x="650" y="255" width="180" height="14" rx="7" fill="#E8EAF2"/>
  <rect x="650" y="285" width="240" height="12" rx="6" fill="#E8EAF2"/>
  <rect x="650" y="315" width="200" height="12" rx="6" fill="#E8EAF2"/>

  <rect x="200" y="520" width="800" height="180" rx="28" fill="white" fill-opacity="0.9"/>
  <rect x="240" y="555" width="260" height="14" rx="7" fill="#E8EAF2"/>
  <rect x="240" y="585" width="420" height="12" rx="6" fill="#E8EAF2"/>
  <rect x="240" y="615" width="320" height="12" rx="6" fill="#E8EAF2"/>

  <circle cx="970" cy="170" r="80" fill="url(#blob1)" fill-opacity="0.6"/>
  <circle cx="210" cy="760" r="90" fill="url(#blob2)" fill-opacity="0.6"/>

  <defs>
    <linearGradient id="bg" x1="0" y1="0" x2="1200" y2="900" gradientUnits="userSpaceOnUse">
      <stop stop-color="#EEF1FF"/>
      <stop offset="0.5" stop-color="#F7F8FC"/>
      <stop offset="1" stop-color="#EEF7F8"/>
    </linearGradient>
    <linearGradient id="blob1" x1="890" y1="90" x2="1060" y2="260" gradientUnits="userSpaceOnUse">
      <stop stop-color="#5B6BF8"/>
      <stop offset="1" stop-color="#90D6FF"/>
    </linearGradient>
    <linearGradient id="blob2" x1="120" y1="670" x2="300" y2="850" gradientUnits="userSpaceOnUse">
      <stop stop-color="#7B61FF"/>
      <stop offset="1" stop-color="#C6E6FF"/>
    </linearGradient>
  </defs>
</svg>
